<svg width="52" height="52" viewBox="0 0 52 52" fill="none" xmlns="http://www.w3.org/2000/svg">
<g id="growth 1">
<g id="Group">
<g id="Group_2">
<path id="Vector" d="M45.9692 28.4828L45.7958 27.3902L44.7033 27.2169C44.4115 27.1704 37.501 26.1374 32.7549 30.8837C28.8978 34.7409 28.8575 40.0272 29.0027 42.0291L27.5232 43.5086V26.3523C34.098 25.5945 39.2202 19.9948 39.2202 13.2203C39.2202 5.93064 33.2895 0 25.9998 0C18.71 0 12.7795 5.93064 12.7795 13.2204C12.7795 19.9948 17.9016 25.5945 24.4763 26.3524V43.5086L22.9969 42.0292C23.142 40.0273 23.1018 34.7409 19.2446 30.8838C14.4984 26.1375 7.58822 27.1706 7.29623 27.217L6.20372 27.3903L6.03035 28.4829C5.98404 28.7748 4.95085 35.6852 9.69706 40.4313C12.9552 43.6895 17.2331 44.2242 19.6898 44.2242C20.1421 44.2242 20.5311 44.206 20.8422 44.1834L24.4763 47.8173V52H27.5232V47.8173L31.1572 44.1833C31.4683 44.2059 31.8574 44.2241 32.3097 44.2241C34.7665 44.2241 39.0447 43.6891 42.3025 40.4312C47.0487 35.6851 46.0155 28.7747 45.9692 28.4828ZM15.5481 34.5804L13.3936 36.7349L17.6937 41.0349C15.8593 40.7685 13.6273 40.0526 11.8515 38.2769C9.23221 35.6576 8.92427 31.9971 8.95911 30.1404C10.814 30.1001 14.4545 30.4024 17.0902 33.0382C18.8513 34.7993 19.5668 37.0304 19.8364 38.8687L15.5481 34.5804ZM25.9998 23.3938C20.3901 23.3938 15.8264 18.83 15.8264 13.2204C15.8264 7.61079 20.3902 3.04688 25.9998 3.04688C31.6094 3.04688 36.1733 7.61079 36.1733 13.2204C36.1733 18.83 31.6095 23.3938 25.9998 23.3938ZM40.1479 38.2769C38.3867 40.0381 36.1552 40.7541 34.317 41.0236L38.6059 36.7348L36.4515 34.5803L32.1512 38.8806C32.4174 37.0461 33.1333 34.8142 34.9093 33.0382C37.5288 30.4188 41.1886 30.1104 43.0458 30.1458C43.0863 31.9987 42.784 35.6408 40.1479 38.2769Z" fill="#4BDAFF"/>
</g>
</g>
<g id="Group_3">
<g id="Group_4">
<path id="Vector_2" d="M26.0005 11.6969C25.4025 11.6969 24.916 11.2104 24.916 10.6124C24.916 10.0144 25.4025 9.52796 26.0005 9.52796C26.5985 9.52796 27.085 10.0144 27.085 10.6124H30.1319C30.1319 8.87237 29.0499 7.38123 27.5239 6.77348V4.95947H24.4771V6.77348C22.9511 7.38123 21.8691 8.87247 21.8691 10.6124C21.8691 12.8905 23.7225 14.7438 26.0005 14.7438C26.5985 14.7438 27.085 15.2302 27.085 15.8282C27.085 16.4262 26.5985 16.9127 26.0005 16.9127C25.4025 16.9127 24.916 16.4262 24.916 15.8282H21.8691C21.8691 17.5683 22.9511 19.0594 24.4771 19.6671V21.4812H27.5239V19.6671C29.0499 19.0594 30.1319 17.5682 30.1319 15.8282C30.1319 13.5501 28.2785 11.6969 26.0005 11.6969Z" fill="#4BDAFF"/>
</g>
</g>
</g>
</svg>
