<svg width="44" height="43" viewBox="0 0 44 43" fill="none" xmlns="http://www.w3.org/2000/svg">
<path d="M30.0678 40.7695L30.0756 40.7662C34.3143 38.9779 37.873 35.744 40.2074 31.8395L40.2141 31.8284L40.214 31.8283C41.6056 29.3572 42.589 26.5919 42.8329 23.7338C43.0249 22.2608 43.0334 20.7408 42.8324 19.2624C42.2093 12.7321 38.1707 6.69234 32.4679 3.43197L32.4671 3.43155C29.9367 1.99044 27.0872 0.998398 24.1539 0.732628C22.6668 0.543964 21.1332 0.545971 19.6461 0.738659C16.7123 1.00051 13.8697 1.99473 11.3354 3.4202L11.3293 3.42364L11.3293 3.42368C8.18152 5.2528 5.52187 7.88987 3.67467 11.0118L3.6707 11.0186L3.67075 11.0186C2.23581 13.5326 1.22382 16.3504 0.96545 19.2648C0.769034 20.7383 0.766938 22.2625 0.965705 23.7373C1.58457 30.2287 5.57968 36.2336 11.2263 39.5063L30.0678 40.7695ZM30.0678 40.7695L30.0599 40.7725M30.0678 40.7695L30.0599 40.7725M30.0599 40.7725C28.1955 41.4862 26.2193 42.1327 24.1464 42.2704M30.0599 40.7725L24.1464 42.2704M24.1464 42.2704C22.6616 42.4499 21.1303 42.4561 19.6434 42.2694C16.6737 41.9856 13.7849 40.9903 11.2264 39.5064L24.1464 42.2704ZM15.0153 38.6738L15.0153 38.6737L15.0226 38.6766C19.3302 40.4203 24.2953 40.4272 28.6314 38.7559L28.6316 38.7559C30.6718 37.9706 32.5679 36.8192 34.2293 35.3983C30.0354 31.2752 25.8661 27.128 21.698 22.982C21.4117 22.6972 21.1255 22.4125 20.8393 22.1278L20.6921 21.9814L20.6919 21.7738C20.6886 18.2714 20.6889 14.7678 20.6892 11.2644C20.6894 8.51997 20.6896 5.77568 20.6881 3.03233C18.7509 3.15637 16.8376 3.62213 15.0168 4.32979C10.3101 6.1813 6.42232 10.0073 4.56978 14.6778L4.56841 14.6812C3.91753 16.2879 3.51049 17.984 3.31608 19.7084C3.22549 20.9015 3.2218 22.1006 3.31627 23.2903C3.4856 25.0092 3.93415 26.6963 4.57418 28.3192L4.5745 28.32C6.40948 32.9968 10.2974 36.849 15.0153 38.6738ZM40.4157 23.6618L40.4187 23.601L40.4362 23.5427C40.5151 23.2791 40.5311 23.0141 40.5381 22.704C38.414 22.7063 36.2914 22.7049 34.1694 22.7034C31.0557 22.7014 27.9432 22.6993 24.8288 22.709C26.5027 24.3827 28.197 26.0589 29.8924 27.7361C31.9113 29.7333 33.9316 31.7319 35.9206 33.7297C37.2304 32.2522 38.2933 30.5644 39.103 28.7603C39.7413 27.0617 40.3311 25.3949 40.4157 23.6618ZM24.0522 3.13364L24.0218 3.13048L23.992 3.12365C23.7102 3.05899 23.4215 3.03547 23.1102 3.02341C23.1084 8.78178 23.1083 14.5401 23.1083 20.2968C24.4778 20.2968 25.8472 20.2966 27.2167 20.2965C31.6563 20.2962 36.0961 20.2958 40.5359 20.2985C40.5248 19.9906 40.501 19.7047 40.4363 19.4275L40.4293 19.3974L40.426 19.3666C40.0107 15.4493 38.2074 11.6961 35.4841 8.81737C32.4988 5.67942 28.3786 3.58295 24.0522 3.13364Z" fill="#4BDAFF" stroke="#4BDAFF"/>
</svg>
