<svg width="42" height="56" viewBox="0 0 42 56" fill="none" xmlns="http://www.w3.org/2000/svg">
<g id="Icon/Compass">
<path id="Vector 5 (Stroke)" fill-rule="evenodd" clip-rule="evenodd" d="M21.0004 0C21.8289 0 22.5004 0.671573 22.5004 1.5V4.67105C26.6173 5.50567 29.6491 9.21458 29.4995 13.5518C29.4102 16.1416 28.2413 18.4275 26.4056 19.9677L32.5012 33.785H37.5004C38.3288 33.785 39.0004 34.4566 39.0004 35.285C39.0004 36.1134 38.3288 36.785 37.5004 36.785H33.8247L41.3728 53.8946C41.7071 54.6525 41.3638 55.538 40.6058 55.8724C39.8479 56.2068 38.9624 55.8634 38.628 55.1054L30.5457 36.785H22.2619V39.5C22.2619 40.3284 21.5904 41 20.7619 41C19.9335 41 19.2619 40.3284 19.2619 39.5V36.785H10.977L2.87215 55.1068C2.53701 55.8644 1.65116 56.2069 0.893554 55.8718C0.135943 55.5366 -0.206538 54.6508 0.128601 53.8932L7.69662 36.785H4.00038C3.17195 36.785 2.50038 36.1134 2.50038 35.285C2.50038 34.4566 3.17195 33.785 4.00038 33.785H9.02371L15.1362 19.9671C13.2965 18.4282 12.0906 16.1411 12.0013 13.5518C11.8468 9.07092 15.2047 5.22487 19.5004 4.58819V1.5C19.5004 0.671573 20.172 0 21.0004 0ZM17.7492 21.4759L12.3041 33.785H19.2619V32C19.2619 31.1716 19.9335 30.5 20.7619 30.5C21.5904 30.5 22.2619 31.1716 22.2619 32V33.785H29.2223L23.7909 21.4734C22.9335 21.7842 22.0127 21.966 21.0521 21.9992C19.8933 22.0391 18.7774 21.8514 17.7492 21.4759ZM20.9487 7.49917C17.6777 7.38638 14.8868 10.1773 14.9995 13.4484C15.0691 15.464 16.166 17.2028 17.7769 18.1775C18.6992 18.7356 19.7876 19.041 20.9487 19.001C21.9974 18.9648 22.955 18.6668 23.7676 18.1765C25.3596 17.2161 26.4307 15.4962 26.5013 13.4484C26.6109 10.2722 24.1249 7.6087 20.9487 7.49917Z" fill="white"/>
</g>
</svg>
