<svg width="56" height="53" viewBox="0 0 56 53" fill="none" xmlns="http://www.w3.org/2000/svg">
<g id="Icon/Diagram">
<path id="Vector 4 (Stroke)" fill-rule="evenodd" clip-rule="evenodd" d="M39.0033 14.4065C39.0549 13.5797 39.7671 12.9513 40.5939 13.003L40.5004 14.5001L40.4068 15.9971C39.58 15.9455 38.9516 15.2333 39.0033 14.4065ZM43.3168 21.5786C42.8078 22.2322 42.9252 23.1747 43.5789 23.6836C44.2325 24.1926 45.175 24.0752 45.6839 23.4215L44.5004 22.5001C45.6839 23.4215 45.6839 23.4216 45.6839 23.4215L45.6995 23.4015L45.7421 23.3465C45.7792 23.2985 45.8331 23.2287 45.9014 23.1398C46.0378 22.9622 46.2317 22.7083 46.4628 22.4018C46.9241 21.7899 47.5375 20.9635 48.1393 20.1128C48.7358 19.2694 49.3423 18.3723 49.7773 17.6277C49.9906 17.2625 50.1931 16.8829 50.3284 16.5393C50.3943 16.3721 50.4703 16.1493 50.5062 15.9045C50.5332 15.7198 50.593 15.1848 50.2484 14.668L50.166 14.5444L50.061 14.4394C49.7787 14.1571 49.4413 14.0351 49.3359 13.997L49.3327 13.9959C49.1669 13.9359 48.9904 13.8892 48.8288 13.8519C48.5011 13.7763 48.0991 13.7087 47.6734 13.6479C46.8147 13.5253 45.7375 13.4132 44.6987 13.3187C43.655 13.2238 42.6294 13.145 41.8661 13.0899C41.4841 13.0623 41.1669 13.0406 40.9449 13.0258C40.8338 13.0184 40.7465 13.0127 40.6868 13.0089L40.5939 13.003C40.5938 13.003 40.5939 13.003 40.5004 14.5001L40.4068 15.9971L40.4938 16.0027C40.5515 16.0064 40.6366 16.0119 40.7453 16.0192C40.9627 16.0337 41.2744 16.055 41.6502 16.0821C42.2733 16.1271 43.0702 16.1879 43.9043 16.26L8.35677 33.1451C7.60847 33.5006 7.28999 34.3953 7.64543 35.1436C8.00088 35.8919 8.89564 36.2104 9.64394 35.855L45.3087 18.9142C44.8582 19.5392 44.4193 20.129 44.0674 20.5957C43.8424 20.8941 43.6539 21.1409 43.522 21.3126C43.4561 21.3985 43.4043 21.4655 43.3693 21.5109L43.3295 21.5621L43.3168 21.5786Z" fill="white"/>
<path id="Vector 3 (Stroke)" fill-rule="evenodd" clip-rule="evenodd" d="M34.5 2.5C34.5 1.11929 35.6193 0 37 0H52.5C53.8807 0 55 1.11929 55 2.5V42.5C55 43.8807 53.8807 45 52.5 45H2.5C1.11929 45 0 43.8807 0 42.5V22C0 20.6193 1.11929 19.5 2.5 19.5H17V10C17 8.61929 18.1193 7.5 19.5 7.5H34.5V2.5ZM34.5 10.5H20V24.5C20 25.3284 19.3284 26 18.5 26C17.6716 26 17 25.3284 17 24.5V22.5H3V42H17V35.5C17 34.6716 17.6716 34 18.5 34C19.3284 34 20 34.6716 20 35.5V42H34.5V27.5C34.5 26.6716 35.1716 26 36 26C36.8284 26 37.5 26.6716 37.5 27.5V42H52V3H37.5V16.5C37.5 17.3284 36.8284 18 36 18C35.1716 18 34.5 17.3284 34.5 16.5V10.5Z" fill="white"/>
<path id="Line 23 (Stroke)" fill-rule="evenodd" clip-rule="evenodd" d="M0.5 51.5C0.5 50.6716 1.21032 50 2.08654 50H53.9135C54.7897 50 55.5 50.6716 55.5 51.5C55.5 52.3284 54.7897 53 53.9135 53H2.08654C1.21032 53 0.5 52.3284 0.5 51.5Z" fill="white"/>
</g>
</svg>
