<svg width="59" height="63" viewBox="0 0 59 63" fill="none" xmlns="http://www.w3.org/2000/svg">
<g id="Icon/Lamp">
<path id="Vector 2 (Stroke)" fill-rule="evenodd" clip-rule="evenodd" d="M11.5 28.0001C11.5 18.1527 19.7299 10.1944 29.5468 10.5013C39.0647 10.7988 46.5 18.7028 46.5 28.0001C46.5 32.2135 44.7249 36.7328 42.9004 40.299C41.1332 43.7532 39.2238 46.4945 38.5 47.4937V60.0005C38.5 61.3812 37.3807 62.5005 36 62.5005H22C20.6193 62.5005 19.5 61.3812 19.5 60.0005V47.9927C18.7755 46.9898 16.8636 44.2315 15.0946 40.7071C13.2655 37.063 11.5 32.4274 11.5 28.0001ZM29.4531 13.4998C21.3277 13.2458 14.5 19.8475 14.5 28.0001C14.5 31.7231 16.0148 35.8529 17.7758 39.3613C19.52 42.8362 21.4183 45.5323 22.0114 46.3456C22.3215 46.7708 22.5 47.2908 22.5 47.8378V51.5005H24.5V36.3546L22.3819 32.1186C21.5508 30.4563 22.7596 28.5005 24.618 28.5005H33.3819C35.2404 28.5005 36.4491 30.4563 35.618 32.1186L33.4896 36.3754L33.0447 51.5005H35.5V47.3381C35.5 46.7912 35.6784 46.2706 35.9897 45.8448C36.5848 45.0307 38.4846 42.3434 40.2297 38.9326C41.9951 35.4818 43.5 31.4839 43.5 28.0001C43.5 20.2973 37.3257 13.7459 29.4531 13.4998ZM35.5 54.5005H22.5V59.5005H35.5V54.5005ZM30.0434 51.5005L30.4941 36.1769C30.5048 35.8138 30.5945 35.4573 30.757 35.1324L32.5729 31.5005H25.427L27.236 35.1186C27.4096 35.4657 27.5 35.8485 27.5 36.2366V51.5005H30.0434Z" fill="#4BDAFF"/>
<path id="Line 22 (Stroke)" fill-rule="evenodd" clip-rule="evenodd" d="M46.707 42.293C47.0975 41.9025 47.7306 41.9025 48.1212 42.293L51.707 45.8788C52.0975 46.2694 52.0975 46.9025 51.707 47.293C51.3164 47.6836 50.6833 47.6836 50.2927 47.293L46.707 43.7073C46.3164 43.3167 46.3164 42.6836 46.707 42.293Z" fill="#4BDAFF"/>
<path id="Line 22 (Stroke)_2" fill-rule="evenodd" clip-rule="evenodd" d="M11.378 42.293C10.9875 41.9025 10.3543 41.9025 9.96379 42.293L6.37801 45.8788C5.98748 46.2694 5.98748 46.9025 6.37801 47.293C6.76853 47.6836 7.40169 47.6836 7.79222 47.293L11.378 43.7073C11.7685 43.3167 11.7685 42.6836 11.378 42.293Z" fill="#4BDAFF"/>
<path id="Line 22 (Stroke)_3" fill-rule="evenodd" clip-rule="evenodd" d="M51.0074 27C51.0114 26.4477 51.4624 26.0033 52.0146 26.0073L57.0856 26.0442C57.6378 26.0482 58.0823 26.4992 58.0783 27.0514C58.0742 27.6037 57.6233 28.0481 57.071 28.0441L52.0001 28.0072C51.4478 28.0032 51.0034 27.5522 51.0074 27Z" fill="#4BDAFF"/>
<path id="Line 22 (Stroke)_4" fill-rule="evenodd" clip-rule="evenodd" d="M7.07759 27C7.07357 26.4477 6.62261 26.0033 6.07034 26.0073L0.999405 26.0442C0.447135 26.0482 0.00268971 26.4992 0.00670853 27.0514C0.0107273 27.6037 0.461689 28.0481 1.01396 28.0441L6.08489 28.0072C6.63716 28.0032 7.08161 27.5522 7.07759 27Z" fill="#4BDAFF"/>
<path id="Line 22 (Stroke)_5" fill-rule="evenodd" clip-rule="evenodd" d="M43.6667 12.4601C43.2985 12.0485 43.3337 11.4163 43.7453 11.0481L47.5247 7.66698C47.9363 7.29874 48.5685 7.3339 48.9367 7.74551C49.3049 8.15712 49.2698 8.78931 48.8582 9.15754L45.0788 12.5387C44.6672 12.9069 44.035 12.8717 43.6667 12.4601Z" fill="#4BDAFF"/>
<path id="Line 22 (Stroke)_6" fill-rule="evenodd" clip-rule="evenodd" d="M14.4192 12.4601C14.7874 12.0485 14.7523 11.4163 14.3407 11.0481L10.5613 7.66698C10.1497 7.29874 9.51747 7.3339 9.14924 7.74551C8.781 8.15712 8.81616 8.78931 9.22777 9.15754L13.0072 12.5387C13.4188 12.9069 14.051 12.8717 14.4192 12.4601Z" fill="#4BDAFF"/>
<path id="Line 22 (Stroke)_7" fill-rule="evenodd" clip-rule="evenodd" d="M29 7.07129C28.4477 7.07129 28 6.62357 28 6.07129L28 1.00022C28 0.447937 28.4477 0.000221233 29 0.000221209C29.5523 0.000221185 30 0.447936 30 1.00022L30 6.07129C30 6.62357 29.5523 7.07129 29 7.07129Z" fill="#4BDAFF"/>
</g>
</svg>
