<svg width="13" height="13" viewBox="0 0 13 13" fill="none" xmlns="http://www.w3.org/2000/svg">
<g id="left-arrow 1" clip-path="url(#clip0_1_447)">
<g id="Group">
<g id="Group_2">
<path id="Vector" d="M0.507803 5.99218H11.2622L9.4807 4.21931C9.28191 4.02147 9.28115 3.69995 9.479 3.50116C9.67684 3.30235 9.99839 3.30162 10.1972 3.49944L12.8506 6.14006C12.8508 6.14021 12.8509 6.14039 12.851 6.14054C13.0493 6.33839 13.05 6.66095 12.8511 6.85945C12.8509 6.8596 12.8508 6.85978 12.8506 6.85993L10.1972 9.50056C9.99846 9.69835 9.67692 9.69766 9.47905 9.49883C9.2812 9.30005 9.28196 8.97853 9.48075 8.78068L11.2622 7.00781H0.507803C0.227339 7.00781 -9.53674e-06 6.78046 -9.53674e-06 6.5C-9.53674e-06 6.21953 0.227339 5.99218 0.507803 5.99218Z" fill="#949FA8"/>
</g>
</g>
</g>
<defs>
<clipPath id="clip0_1_447">
<rect width="13" height="13" fill="white" transform="matrix(-1 0 0 1 13 0)"/>
</clipPath>
</defs>
</svg>
