<svg width="10" height="10" viewBox="0 0 10 10" fill="none" xmlns="http://www.w3.org/2000/svg">
<g id="Frame 4">
<path id="Vector (Stroke)" fill-rule="evenodd" clip-rule="evenodd" d="M6.45357 1.73776C5.75009 1.42431 4.96414 1.34666 4.21292 1.51638C3.46171 1.68611 2.78548 2.09412 2.2851 2.67957C1.78472 3.26502 1.48699 3.99653 1.43631 4.76501C1.38564 5.53349 1.58474 6.29777 2.00391 6.94385C2.42309 7.58993 3.03989 8.08321 3.76231 8.35011C4.48473 8.61701 5.27408 8.64323 6.01262 8.42486C6.75117 8.2065 7.39934 7.75525 7.86047 7.13841C8.32152 6.52168 8.5709 5.77246 8.57143 5.00245C8.57143 5.00232 8.57143 5.00259 8.57143 5.00245M8.57143 5.00245V4.60817C8.57143 4.21368 8.89122 3.89388 9.28571 3.89388C9.6802 3.89388 10 4.21368 10 4.60817V5.00245C9.99938 6.08066 9.65024 7.1302 9.00466 7.99377C8.35908 8.85735 7.45164 9.4891 6.41768 9.79481C5.38371 10.1005 4.27863 10.0638 3.26723 9.69015C2.25584 9.31649 1.39233 8.62591 0.80548 7.72139C0.218633 6.81688 -0.0601044 5.74689 0.0108384 4.67102C0.0817812 3.59514 0.498603 2.57102 1.19914 1.7514C1.89968 0.931771 2.84639 0.360553 3.89809 0.122935C4.94979 -0.114683 6.05013 -0.00596968 7.035 0.432862C7.39534 0.593419 7.55729 1.01569 7.39673 1.37602C7.23618 1.73636 6.81391 1.89832 6.45357 1.73776" fill="#4BDAFF"/>
<path id="Vector (Stroke)_2" fill-rule="evenodd" clip-rule="evenodd" d="M9.809 1.08543C10.0774 1.37451 10.0607 1.82646 9.77161 2.09489L5.15623 6.3806C4.88227 6.63499 4.4585 6.6351 4.18442 6.38085L2.7998 5.09642C2.51059 4.82813 2.49363 4.37619 2.76191 4.08697C3.0302 3.79776 3.48214 3.7808 3.77135 4.04908L4.66995 4.88266L8.79954 1.04804C9.08862 0.779612 9.54057 0.796351 9.809 1.08543Z" fill="#4BDAFF"/>
</g>
</svg>
