<svg width="72" height="60" viewBox="0 0 72 60" fill="none" xmlns="http://www.w3.org/2000/svg">
<g id="clipboard 4">
<g id="#000000ff">
<path id="Vector" d="M34.0216 6.91899L33.9753 6.92009L33.9325 6.93769C33.1735 7.24959 32.346 7.6547 31.819 8.41298C31.105 9.28515 30.9854 10.4177 30.9951 11.4384C29.4913 11.4383 27.9875 11.4377 26.4838 11.437C22.779 11.4354 19.0746 11.4337 15.3704 11.441C13.7237 11.3867 12.3679 12.6748 11.9558 14.1782L11.952 14.1922L11.9498 14.2065C11.656 16.1303 12.9911 17.9935 14.868 18.3258C14.8688 21.5123 14.8676 24.6994 14.8665 27.8867C14.8645 33.3137 14.8625 38.7412 14.8704 44.1673C14.8228 44.5289 14.9406 44.8996 15.1617 45.1688C15.3858 45.4417 15.7329 45.6275 16.1384 45.5696C19.9536 45.5779 23.7691 45.5766 27.5843 45.5753C29.6238 45.5746 31.6632 45.5739 33.7024 45.5747C33.7022 45.6749 33.702 45.775 33.7018 45.875C33.7011 46.2856 33.7004 46.6952 33.695 47.1055C33.1802 47.4202 32.5748 47.7991 32.2665 48.449C31.4967 49.7528 31.978 51.5685 33.2201 52.3744C34.1745 53.0271 35.513 53.0282 36.4665 52.3645C37.7328 51.5677 38.1815 49.7455 37.4344 48.4379C37.1287 47.7896 36.5132 47.4184 36.0008 47.1094C35.9998 47.1088 35.9988 47.1082 35.9978 47.1076C35.9925 46.5971 35.9918 46.0864 35.9917 45.5747C38.0061 45.5739 40.0208 45.5749 42.0355 45.5759C45.8756 45.5778 49.7158 45.5796 53.5544 45.5696C53.9586 45.6259 54.3052 45.4427 54.5301 45.1718C54.752 44.9044 54.8707 44.5361 54.8244 44.1755C54.8346 35.5525 54.8321 26.9296 54.8246 18.3093C56.0929 17.9554 57.0799 16.9705 57.4921 15.7117L57.5022 15.6808L57.5041 15.6484C57.5579 14.7243 57.5328 13.6314 56.8423 12.8098C56.1215 11.8672 54.9535 11.3663 53.7932 11.428C50.9787 11.4423 48.1683 11.4393 45.3574 11.4363C43.1398 11.4339 40.9218 11.4316 38.7012 11.4377C38.7069 10.4206 38.5877 9.2937 37.8821 8.42223C37.3577 7.65259 36.5304 7.23708 35.7554 6.9359L35.7145 6.92003L35.6708 6.91899C35.121 6.90591 34.5713 6.90591 34.0216 6.91899ZM35.8596 9.6104L35.8705 9.62233L35.8828 9.63275C36.1514 9.8593 36.2847 10.1642 36.3495 10.5246C36.4019 10.8157 36.407 11.1235 36.4081 11.4385C36.2899 11.4385 36.1717 11.4386 36.0535 11.4387C35.1326 11.4393 34.2151 11.44 33.2977 11.4269C33.2993 11.377 33.3005 11.3274 33.3017 11.2785C33.302 11.2663 33.3023 11.254 33.3026 11.2419C33.3055 11.1194 33.3084 11.0012 33.3147 10.8837C33.3285 10.6272 33.3585 10.3906 33.4346 10.1695C33.514 9.96718 33.6524 9.79986 33.8312 9.63739C33.9213 9.55547 34.0188 9.47732 34.1221 9.3966C34.1437 9.37968 34.1657 9.36254 34.188 9.34521C34.2461 9.30001 34.3059 9.25352 34.3647 9.20624C34.6503 9.20719 34.9208 9.20923 35.1738 9.25737C35.446 9.30915 35.6773 9.41121 35.8596 9.6104ZM54.0823 13.7644L54.0951 13.7644L54.108 13.7631C54.3401 13.7393 54.5368 13.8205 54.7278 13.973C54.9054 14.1149 55.0616 14.3046 55.2219 14.5059L55.2136 14.9079L55.2053 15.3044C54.9934 15.5298 54.7761 15.7506 54.5561 15.9685C41.4185 15.9942 28.2808 15.9916 15.1431 15.9684C14.9203 15.7503 14.7013 15.5314 14.4895 15.3068C14.4869 15.1926 14.4834 15.0511 14.48 14.91L14.48 14.9096C14.4765 14.7659 14.473 14.6227 14.4704 14.5083C14.631 14.3066 14.7859 14.1169 14.9625 13.9746C15.1521 13.8219 15.347 13.7404 15.5776 13.7632L15.5899 13.7644L15.6024 13.7644C28.429 13.754 41.2556 13.754 54.0823 13.7644ZM36.2296 18.3026C41.6638 18.3035 47.0982 18.3044 52.533 18.3021C52.5278 21.9624 52.5296 25.6221 52.5314 29.2814C52.5337 33.9391 52.5359 38.5963 52.5238 43.2541C46.1689 43.2582 39.8154 43.2571 33.462 43.256C28.0287 43.2551 22.5955 43.2542 17.1618 43.2565C17.1666 39.0982 17.1653 34.9399 17.1641 30.7815C17.1628 26.6228 17.1615 22.4639 17.1663 18.3045C23.5211 18.3005 29.8753 18.3015 36.2296 18.3026ZM34.5215 50.5309C34.4281 50.3975 34.297 50.2111 34.2036 50.0791C34.2156 49.9045 34.2316 49.6597 34.2436 49.468C34.375 49.4228 34.5034 49.3741 34.6279 49.3265L34.6551 49.3161C34.7808 49.2681 34.9026 49.2215 35.0245 49.1789C35.1691 49.2928 35.3602 49.4431 35.4936 49.5479C35.6354 50.1716 35.1274 50.6694 34.5215 50.5309Z" fill="#4BDAFF" stroke="#4BDAFF" stroke-width="0.5"/>
<path id="Vector_2" d="M39.1171 23.5143L39.1139 23.5252L39.1117 23.5364C38.7443 25.4183 39.802 27.4289 41.6233 28.0624C42.7637 28.5297 44.0259 28.2953 45.0044 27.6534C45.9823 27.0119 46.7065 25.944 46.7503 24.7036C46.9726 22.6728 45.3165 20.7537 43.35 20.5542C41.419 20.2985 39.6419 21.7153 39.1171 23.5143ZM42.8166 25.9752L42.8049 25.9738L42.7932 25.9734C42.2072 25.9551 41.7832 25.4917 41.3883 24.9415C41.3903 24.5905 41.3904 24.2414 41.3904 23.8932C41.5803 23.6389 41.7719 23.393 41.9922 23.2021C42.2269 22.9986 42.4785 22.8716 42.7753 22.8654L42.7912 22.8651L42.8069 22.8627C43.1531 22.8111 43.4638 22.9179 43.7473 23.1239C44.0163 23.3193 44.2519 23.5984 44.4494 23.8931V23.8949V23.8972V23.8996V23.9019V23.9042V23.9066V23.9089V23.9112V23.9135V23.9159V23.9182V23.9205V23.9229V23.9252V23.9275V23.9298V23.9322V23.9345V23.9368V23.9392V23.9415V23.9438V23.9461V23.9485V23.9508V23.9531V23.9555V23.9578V23.9601V23.9624V23.9648V23.9671V23.9694V23.9718V23.9741V23.9764V23.9788V23.9811V23.9834V23.9857V23.9881V23.9904V23.9927V23.9951V23.9974V23.9997V24.002V24.0044V24.0067V24.009V24.0114V24.0137V24.016V24.0183V24.0207V24.023V24.0253V24.0277V24.03V24.0323V24.0346V24.037V24.0393V24.0416V24.044V24.0463V24.0486V24.0509V24.0533V24.0556V24.0579V24.0603V24.0626V24.0649V24.0673V24.0696V24.0719V24.0742V24.0766V24.0789V24.0812V24.0836V24.0859V24.0882V24.0905V24.0929V24.0952V24.0975V24.0999V24.1022V24.1045V24.1069V24.1092V24.1115V24.1138V24.1162V24.1185V24.1208V24.1232V24.1255V24.1278V24.1301V24.1325V24.1348V24.1371V24.1395V24.1418V24.1441V24.1465V24.1488V24.1511V24.1534V24.1558V24.1581V24.1604V24.1628V24.1651V24.1674V24.1698V24.1721V24.1744V24.1767V24.1791V24.1814V24.1837V24.1861V24.1884V24.1907V24.1931V24.1954V24.1977V24.2V24.2024V24.2047V24.207V24.2094V24.2117V24.214V24.2164V24.2187V24.221V24.2233V24.2257V24.228V24.2303V24.2327V24.235V24.2373V24.2397V24.242V24.2443V24.2466V24.249V24.2513V24.2536V24.256V24.2583V24.2606V24.263V24.2653V24.2676V24.27V24.2723V24.2746V24.2769V24.2793V24.2816V24.2839V24.2863V24.2886V24.2909V24.2933V24.2956V24.2979V24.3003V24.3026V24.3049V24.3072V24.3096V24.3119V24.3142V24.3166V24.3189V24.3212V24.3236V24.3259V24.3282V24.3306V24.3329V24.3352V24.3376V24.3399V24.3422V24.3445V24.3469V24.3492V24.3515V24.3539V24.3562V24.3585V24.3609V24.3632V24.3655V24.3679V24.3702V24.3725V24.3749V24.3772V24.3795V24.3819V24.3842V24.3865V24.3889V24.3912V24.3935V24.3958V24.3982V24.4005V24.4028V24.4052V24.4075V24.4098V24.4122V24.4145V24.4168V24.4192V24.4215V24.4238V24.4262V24.4285V24.4308V24.4332V24.4355V24.4378V24.4402V24.4425V24.4448V24.4472V24.4495V24.4518V24.4542V24.4565V24.4588V24.4612V24.4635V24.4658V24.4682V24.4705V24.4728V24.4752V24.4775V24.4798V24.4822V24.4845V24.4868V24.4892V24.4915V24.4938V24.4962V24.4985V24.5008V24.5032V24.5055V24.5078V24.5102V24.5125V24.5148V24.5172V24.5195V24.5218V24.5242V24.5265V24.5288V24.5312V24.5335V24.5358V24.5382V24.5405V24.5428V24.5452V24.5475V24.5498V24.5522V24.5545V24.5568V24.5592V24.5615V24.5638V24.5662V24.5685V24.5708V24.5732V24.5755V24.5778V24.5802V24.5825V24.5849V24.5872V24.5895V24.5919V24.5942V24.5965V24.5989V24.6012V24.6035V24.6059V24.6082V24.6105V24.6129V24.6152V24.6175V24.6199V24.6222V24.6246V24.6269V24.6292V24.6316V24.6339V24.6362V24.6386V24.6409V24.6432V24.6456V24.6479V24.6502V24.6526V24.6549V24.6573V24.6596V24.6619V24.6643V24.6666V24.6689V24.6713V24.6736V24.6759V24.6783V24.6806V24.683V24.6853V24.6876V24.69V24.6923V24.6946V24.697V24.6993V24.7016V24.704V24.7063V24.7087V24.711V24.7133V24.7157V24.718V24.7203V24.7227V24.725V24.7274V24.7297V24.732V24.7344V24.7367V24.739V24.7414V24.7437V24.7461V24.7484V24.7507V24.7531V24.7554V24.7577V24.7601V24.7624V24.7648V24.7671V24.7694V24.7718V24.7741V24.7764V24.7788V24.7811V24.7835V24.7858V24.7881V24.7905V24.7928V24.7952V24.7975V24.7998V24.8022V24.8045V24.8068V24.8092V24.8115V24.8139V24.8162V24.8185V24.8209V24.8232V24.8256V24.8279V24.8302V24.8326V24.8349V24.8373V24.8396V24.8419V24.8443V24.8466V24.849V24.8513V24.8536V24.856V24.8583V24.8607V24.863V24.8653V24.8677V24.87V24.8724V24.8747V24.877V24.8794V24.8817V24.8841V24.8864V24.8887V24.8911V24.8934V24.8958V24.8981V24.9004V24.9028V24.9051V24.9075V24.9098V24.9122V24.9145V24.9168V24.9192V24.9215V24.9239V24.9262V24.9285V24.9309V24.9332V24.9356V24.9378C44.0322 25.5591 43.4833 26.0589 42.8166 25.9752Z" fill="#4BDAFF" stroke="#4BDAFF" stroke-width="0.5"/>
<path id="Vector_3" d="M22.2138 23.1718L22.2193 23.1798L22.2253 23.1873C22.5681 23.615 22.9523 24.0021 23.3268 24.3782L23.3464 24.3978C23.6625 24.7153 23.9713 25.0253 24.2551 25.3546C24.0929 25.5165 23.926 25.6785 23.7575 25.8419C23.231 26.3528 22.6894 26.8782 22.229 27.4634L22.2289 27.4633L22.2232 27.471C21.8888 27.9314 22.0452 28.4837 22.3453 28.8252C22.6459 29.1672 23.1741 29.3915 23.6724 29.1048L23.6871 29.0964L23.7004 29.0861C24.1495 28.7399 24.5461 28.3412 24.9244 27.9414C25.0202 27.8402 25.1144 27.7393 25.2081 27.639C25.4315 27.3999 25.6512 27.1648 25.8791 26.9384C26.0707 27.1345 26.2566 27.3353 26.4451 27.5387C26.5709 27.6747 26.698 27.8118 26.8286 27.9497C27.2076 28.3496 27.6075 28.7444 28.0616 29.0833L28.0718 29.0908L28.0826 29.0973C28.5785 29.3946 29.1078 29.1703 29.4087 28.8296C29.7087 28.4899 29.8692 27.9374 29.5391 27.4774L29.5391 27.4774L29.5358 27.4729C29.2039 27.0316 28.8218 26.6395 28.4453 26.2627C28.401 26.2183 28.3568 26.1742 28.3127 26.1303C28.0341 25.8523 27.7618 25.5806 27.5082 25.2942C27.6752 25.1267 27.8477 24.9594 28.0218 24.7903C28.5442 24.2833 29.0816 23.7617 29.5335 23.179L29.5337 23.1791L29.5403 23.1698C29.8651 22.7089 29.7093 22.1606 29.4099 21.8206C29.1099 21.4799 28.5851 21.2583 28.0877 21.5409L28.0721 21.5497L28.0579 21.5607C27.6102 21.9082 27.215 22.3075 26.8379 22.7071C26.7474 22.803 26.6582 22.8986 26.5696 22.9935C26.342 23.2375 26.1182 23.4773 25.8859 23.7076C25.4387 23.2535 24.9967 22.7963 24.5539 22.3383C24.2807 22.0558 24.0072 21.773 23.732 21.4903L23.6809 21.4378L23.6096 21.4212C23.1355 21.311 22.6382 21.5085 22.334 21.8344C22.179 22.0005 22.0637 22.2105 22.0315 22.4469C21.9987 22.6874 22.0544 22.938 22.2138 23.1718Z" fill="#4BDAFF" stroke="#4BDAFF" stroke-width="0.5"/>
<path id="Vector_4" d="M33.3026 29.9072L33.3118 29.913L33.3215 29.918C33.6706 30.0979 34.044 30.1351 34.3888 30.1405C34.5132 30.1425 34.6401 30.1402 34.7619 30.1379C34.467 30.4223 34.1809 30.715 33.8977 31.0045C33.7925 31.1121 33.6878 31.2193 33.5831 31.3254C33.0499 31.8663 32.5154 32.3858 31.9222 32.8339L31.9221 32.8338L31.9142 32.8402C28.9182 35.3011 25.1299 36.7156 21.2785 36.8667L21.2685 36.8671L21.2586 36.8683C21.1487 36.8814 21.0288 36.8837 20.8914 36.886L20.8829 36.8861C20.7526 36.8882 20.607 36.8906 20.4643 36.9064C20.1735 36.9385 19.8528 37.0306 19.6174 37.327C19.2743 37.6742 19.2819 38.158 19.4549 38.523C19.6277 38.8875 19.9973 39.2038 20.4646 39.1952C22.3473 39.2549 24.1978 38.8741 25.9921 38.4829L25.9922 38.4832L26.004 38.48C30.0647 37.3826 33.5713 34.862 36.3813 31.7816C36.3811 31.8741 36.3813 31.9685 36.3828 32.0665C36.3877 32.3819 36.4073 32.7105 36.4854 33.037L36.4897 33.0548L36.4965 33.0718C36.7045 33.591 37.2296 33.7806 37.6793 33.7247C38.1309 33.6686 38.591 33.3536 38.6479 32.7856L38.6481 32.7856L38.6487 32.7758C38.707 31.8105 38.6951 30.8398 38.6833 29.8804C38.6799 29.6098 38.6766 29.3401 38.6749 29.0717C38.7425 28.3816 38.1551 27.7622 37.4635 27.8066C36.2386 27.7756 35.0088 27.7757 33.7851 27.8357L33.7851 27.8355L33.7752 27.8363C33.2559 27.8824 32.9389 28.2936 32.8478 28.7117C32.757 29.1284 32.8714 29.635 33.3026 29.9072Z" fill="#4BDAFF" stroke="#4BDAFF" stroke-width="0.5"/>
<path id="Vector_5" d="M40.858 34.8328L40.8738 34.9024L40.924 34.9531C41.2639 35.2965 41.6035 35.6338 41.9422 35.9703C42.3354 36.361 42.7274 36.7504 43.1173 37.1468C42.8893 37.3837 42.6517 37.6119 42.4099 37.8441C42.3155 37.9347 42.2204 38.026 42.1251 38.1187C41.7308 38.5017 41.337 38.9028 40.9945 39.3564L40.9819 39.373L40.9723 39.3914C40.7385 39.8396 40.8736 40.3079 41.1504 40.619C41.4236 40.9261 41.8684 41.12 42.3175 41.0036L42.3602 40.9925L42.3966 40.9675C42.8764 40.6369 43.2964 40.241 43.6911 39.8353C43.8637 39.6579 44.027 39.4836 44.1882 39.3114C44.3516 39.1369 44.513 38.9647 44.6799 38.7936C44.9381 39.0343 45.1859 39.2877 45.4382 39.5459C45.5016 39.6108 45.5654 39.676 45.6297 39.7414C46.0021 40.1202 46.3894 40.5015 46.8222 40.8365C46.9758 40.9658 47.1449 41.0282 47.3192 41.0346C47.4892 41.0408 47.6477 40.9932 47.7843 40.9321C47.921 40.8709 48.05 40.7897 48.1622 40.7152C48.2003 40.6899 48.2356 40.666 48.2689 40.6434C48.3399 40.5952 48.402 40.5531 48.4633 40.5165L48.5891 40.4413L48.5849 40.2948C48.5617 39.4748 48.118 38.8808 47.6169 38.3835C47.429 38.197 47.2251 38.0168 47.0283 37.8429C46.9646 37.7865 46.9015 37.7308 46.84 37.6757C46.6439 37.5001 46.46 37.3284 46.2985 37.1512C46.5271 36.9132 46.7654 36.6845 47.0077 36.4518C47.1049 36.3585 47.2027 36.2646 47.3009 36.1691C47.6946 35.7863 48.0874 35.3848 48.4277 34.9295L48.4377 34.916L48.4459 34.9013C48.7238 34.4017 48.5069 33.8711 48.1693 33.5658C47.8323 33.2611 47.283 33.0999 46.8249 33.4418L46.8248 33.4417L46.8169 33.448C46.3929 33.7922 46.0107 34.18 45.6401 34.5593C45.6243 34.5755 45.6085 34.5916 45.5928 34.6077C45.2915 34.9162 44.9969 35.2177 44.6849 35.4963C44.5316 35.3382 44.3784 35.176 44.2239 35.0125C43.7144 34.4733 43.1912 33.9197 42.6095 33.448L42.6037 33.4433L42.5976 33.4389C42.3675 33.274 42.1184 33.2145 41.8779 33.2466C41.642 33.2781 41.4331 33.3949 41.2686 33.551C40.9456 33.8573 40.7498 34.3579 40.858 34.8328Z" fill="#4BDAFF" stroke="#4BDAFF" stroke-width="0.5"/>
</g>
</g>
</svg>
