<svg width="56" height="54" viewBox="0 0 56 54" fill="none" xmlns="http://www.w3.org/2000/svg">
<g id="clipboard 2">
<g id="#000000ff">
<path id="Vector" d="M17.355 6.81032L17.3446 6.81495L17.3344 6.82004C11.9354 9.51969 7.6066 14.3419 5.69648 20.0971C4.43471 23.2597 4.39792 26.6869 4.57961 29.9384L4.58021 29.949L4.58126 29.9597C5.42407 38.4841 11.4567 46.223 19.5375 49.1006C23.1618 50.5796 27.1294 50.6858 30.8984 50.3274L30.9098 50.3263L30.9212 50.3247C33.2867 49.99 35.5139 49.1186 37.6357 48.2039L37.6471 48.199L37.6582 48.1936C44.5182 44.8251 49.4658 37.9229 50.3928 30.3368L50.3949 30.3196L50.3958 30.3022C50.5253 27.8165 50.6412 25.202 50.0453 22.6728C48.805 17.0795 45.4747 11.9393 40.7302 8.6756C36.7054 5.82526 31.7282 4.25383 26.7653 4.53151C23.4397 4.42396 20.2678 5.51614 17.355 6.81032ZM25.1533 7.16652L25.1533 7.16656L25.1594 7.16585C29.2243 6.69814 33.4556 7.42126 37.0407 9.38074L37.0406 9.38091L37.053 9.38722C42.0394 11.9356 45.814 16.6995 47.2797 22.0977C48.6264 27.1145 48.0717 32.6728 45.5275 37.2091L45.5232 37.2168L45.5191 37.2246C43.1255 41.8692 38.759 45.3887 33.7962 47.0125C28.5463 48.6716 22.6003 48.2135 17.7878 45.5308L17.7879 45.5306L17.7761 45.5245C13.2381 43.1503 9.74054 38.9349 8.07645 34.098C6.42259 29.1037 6.66417 23.4385 8.99819 18.72L9.00153 18.7132L9.00466 18.7064C11.8884 12.4058 18.2625 7.87319 25.1533 7.16652Z" fill="#4BDAFF" stroke="#4BDAFF"/>
<path id="Vector_2" d="M22.5936 34.0848C22.6797 32.4835 22.7696 30.8836 22.8632 29.2818L22.8749 29.0807L22.7439 28.9276C22.295 28.4028 21.8486 27.8494 21.3969 27.2895C20.8289 26.5853 20.2526 25.8708 19.6526 25.1903C20.1976 25.0353 20.7465 24.8878 21.2995 24.7392C21.4267 24.705 21.5541 24.6707 21.6817 24.6363C22.6201 24.3834 23.5677 24.1223 24.5039 23.8152L24.6793 23.7577L24.7752 23.6C25.3479 22.6589 25.9512 21.7591 26.5612 20.8492C26.8293 20.4493 27.0988 20.0474 27.3675 19.6393C27.7907 20.2829 28.2173 20.9263 28.6432 21.5688C29.0495 22.1816 29.4552 22.7935 29.8569 23.404C30.0132 23.6798 30.2533 23.8251 30.4551 23.9097C30.5937 23.9678 30.7652 24.0145 30.8823 24.0464C30.9187 24.0563 30.9499 24.0648 30.9732 24.0717L30.9846 24.0751L30.9961 24.078C31.5272 24.2094 32.0718 24.3615 32.6247 24.5159C33.4355 24.7424 34.2643 24.9738 35.0949 25.1525C34.5327 25.8476 33.9638 26.5327 33.3926 27.2205C32.9218 27.7875 32.4495 28.3562 31.978 28.934L31.8562 29.0834L31.8661 29.2759C31.9089 30.1042 31.9567 30.9241 32.0043 31.7423C32.0496 32.52 32.0948 33.2961 32.1356 34.0763C30.616 33.4538 29.065 32.9123 27.527 32.3892L27.3661 32.3345L27.2052 32.3892C25.6577 32.9147 24.1154 33.4745 22.5936 34.0848ZM37.7163 23.8109L37.6211 23.6749L37.4634 23.6228C36.3454 23.2537 35.202 22.9744 34.0809 22.7005C33.9004 22.6564 33.7204 22.6124 33.5412 22.5683C33.2298 22.4716 32.911 22.3951 32.6112 22.3232C32.5499 22.3085 32.4895 22.294 32.43 22.2796C32.1159 22.2032 31.8221 22.1268 31.5432 22.028C30.8348 21.0694 30.1961 20.0814 29.5479 19.0786C29.147 18.4586 28.7425 17.8328 28.3156 17.2048C28.1426 16.9176 27.838 16.7332 27.5398 16.6748C27.2262 16.6133 26.8094 16.6783 26.5512 17.0494C25.9606 17.8467 25.4222 18.6803 24.8941 19.498C24.8677 19.5388 24.8413 19.5796 24.815 19.6203C24.2802 20.4481 23.7528 21.2583 23.1755 22.026C22.9424 22.1243 22.6884 22.1972 22.411 22.2635C22.2919 22.2919 22.1516 22.3226 22.0054 22.3546C21.8015 22.3992 21.5863 22.4462 21.4021 22.493L21.402 22.4929L21.3897 22.4963C20.8861 22.6382 20.3618 22.7722 19.8307 22.908C18.9818 23.125 18.1155 23.3465 17.2881 23.6114L17.1327 23.6612L17.0366 23.7931L16.7249 24.2206L16.5201 24.5015L16.7121 24.7913C17.5849 26.1089 18.6298 27.3211 19.649 28.5037C19.9913 28.9008 20.3306 29.2945 20.6596 29.6878C20.6548 30.5387 20.6318 31.3843 20.5769 32.2278C20.3909 33.3604 20.4076 34.5142 20.4233 35.609C20.4258 35.7775 20.4282 35.9447 20.4298 36.1101L20.4338 36.5084L20.8229 36.5936C21.4248 36.7253 21.9704 36.5846 22.4312 36.4131C22.6114 36.3459 22.7925 36.2684 22.9601 36.1967C23.0042 36.1778 23.0474 36.1593 23.0893 36.1415C23.2987 36.0528 23.4885 35.9768 23.6736 35.9222L23.6742 35.922C24.3428 35.7239 24.9857 35.464 25.6026 35.2146L25.6365 35.2009C26.2249 34.963 26.7908 34.7354 27.3684 34.5587C27.9452 34.7301 28.5085 34.9601 29.099 35.2021L29.119 35.2103C29.739 35.4645 30.3899 35.7312 31.0721 35.9243C31.2549 35.982 31.4424 36.0596 31.6498 36.1488C31.6803 36.1619 31.7114 36.1753 31.743 36.189C31.9211 36.266 32.1147 36.3497 32.3095 36.4215C32.7721 36.5919 33.3191 36.7262 33.9198 36.5842L34.3039 36.4934L34.3047 36.0987C34.3051 35.9297 34.3063 35.759 34.3075 35.5868C34.3146 34.5751 34.322 33.5131 34.163 32.4689C34.1054 31.5482 34.0865 30.6212 34.0719 29.6859C34.3796 29.3195 34.6953 28.9524 35.0133 28.5825C36.053 27.3733 37.1183 26.1342 38.0161 24.7933L38.2065 24.5089L38.0102 24.2284C37.9731 24.1754 37.918 24.0972 37.8635 24.02L37.8622 24.0182C37.8068 23.9397 37.7524 23.8625 37.7163 23.8109Z" fill="#4BDAFF" stroke="#4BDAFF"/>
</g>
</g>
</svg>
