<svg width="67" height="38" viewBox="0 0 67 38" fill="none" xmlns="http://www.w3.org/2000/svg">
<g id="Icon/ eye">
<path id="Vector 6 (Stroke)" fill-rule="evenodd" clip-rule="evenodd" d="M3.58466 16.3368C3.14871 17.0636 3 17.6162 3 18.0006C3 18.3976 3.15281 18.9834 3.59306 19.763C4.02603 20.5297 4.68732 21.3955 5.57062 22.3241C7.33669 24.1808 9.87939 26.173 12.9008 28.0041C18.9685 31.6813 26.6937 34.5465 33.4899 34.5006C40.2117 34.4552 47.874 31.5861 53.8646 27.9339C56.8486 26.1147 59.3487 24.1425 61.0682 22.3057C61.9281 21.3871 62.5636 20.5333 62.9712 19.7793C63.385 19.0139 63.5152 18.4428 63.501 18.0555C63.4687 17.1744 62.7255 15.7562 60.8941 13.9808C59.1372 12.2776 56.6268 10.4857 53.6518 8.8483C47.6844 5.5639 40.1111 3.04321 33.4903 3.00055C26.7899 2.95737 19.0414 5.47684 12.9427 8.78513C9.90247 10.4344 7.34159 12.2427 5.56446 13.9578C4.67579 14.8155 4.01505 15.6193 3.58466 16.3368ZM11.5123 6.14814C17.8986 2.68376 26.1502 -0.0468165 33.5097 0.000608494C40.7756 0.0474307 48.8423 2.77682 55.0983 6.22009C58.235 7.9465 60.9821 9.88785 62.9823 11.8269C64.908 13.6937 66.4213 15.8269 66.499 17.9456C66.5398 19.0583 66.1695 20.1717 65.6102 21.2061C65.0447 22.252 64.2343 23.3133 63.2583 24.3559C61.3059 26.4416 58.5738 28.5765 55.4263 30.4954C49.1539 34.3193 40.9563 37.4502 33.5101 37.5005C25.9685 37.5515 17.6937 34.4167 11.3459 30.5697C8.15952 28.6386 5.39057 26.4877 3.39692 24.3917C2.40035 23.344 1.56976 22.2811 0.980818 21.2382C0.399158 20.2082 1.00138e-05 19.1036 1.86947e-10 18.0006C-1.01326e-05 16.885 0.41189 15.7941 1.01196 14.7937C1.61757 13.784 2.46825 12.7767 3.48114 11.7992C5.50714 9.84388 8.31002 7.88524 11.5123 6.14814Z" fill="white"/>
<path id="Ellipse 34 (Stroke)" fill-rule="evenodd" clip-rule="evenodd" d="M33 33.501C41.0081 33.501 47.5 27.0091 47.5 19.001C47.5 10.9928 41.0081 4.50098 33 4.50098C24.9919 4.50098 18.5 10.9928 18.5 19.001C18.5 27.0091 24.9919 33.501 33 33.501ZM33 36.501C42.665 36.501 50.5 28.666 50.5 19.001C50.5 9.33599 42.665 1.50098 33 1.50098C23.335 1.50098 15.5 9.33599 15.5 19.001C15.5 28.666 23.335 36.501 33 36.501Z" fill="white"/>
<path id="Ellipse 35 (Stroke)" fill-rule="evenodd" clip-rule="evenodd" d="M33.5 22.501C35.7091 22.501 37.5 20.7101 37.5 18.501C37.5 16.2918 35.7091 14.501 33.5 14.501C31.2909 14.501 29.5 16.2918 29.5 18.501C29.5 20.7101 31.2909 22.501 33.5 22.501ZM33.5 25.501C37.366 25.501 40.5 22.367 40.5 18.501C40.5 14.635 37.366 11.501 33.5 11.501C29.634 11.501 26.5 14.635 26.5 18.501C26.5 22.367 29.634 25.501 33.5 25.501Z" fill="white"/>
</g>
</svg>
