<svg width="13" height="13" viewBox="0 0 13 13" fill="none" xmlns="http://www.w3.org/2000/svg">
<g id="left-arrow 1" clip-path="url(#clip0_1_441)">
<g id="Group">
<g id="Group_2">
<path id="Vector" d="M12.4922 5.99218H1.73779L3.5193 4.21931C3.71809 4.02147 3.71885 3.69995 3.521 3.50116C3.32316 3.30235 3.00161 3.30162 2.80283 3.49944L0.149408 6.14006C0.14923 6.14021 0.149103 6.14039 0.148951 6.14054C-0.0493244 6.33839 -0.0499591 6.66095 0.1489 6.85945C0.149078 6.8596 0.149205 6.85978 0.149357 6.85993L2.80278 9.50056C3.00154 9.69835 3.32308 9.69766 3.52095 9.49883C3.7188 9.30005 3.71804 8.97853 3.51925 8.78068L1.73779 7.00781H12.4922C12.7727 7.00781 13 6.78046 13 6.5C13 6.21953 12.7727 5.99218 12.4922 5.99218Z" fill="#949FA8"/>
</g>
</g>
</g>
<defs>
<clipPath id="clip0_1_441">
<rect width="13" height="13" fill="white"/>
</clipPath>
</defs>
</svg>
