<svg width="249" height="77" viewBox="0 0 249 77" fill="none" xmlns="http://www.w3.org/2000/svg">
<g id="Logo">
<path id="Vector" d="M5.3826 4.56732C9.45587 0.644408 15.5959 -0.916135 21.0471 0.532325C26.8168 1.93768 31.5446 6.64517 33.1119 12.37C44.7031 8.6368 58.1027 11.6286 66.7229 20.3107C61.909 25.1734 57.0607 30.0102 52.2037 34.8384C46.9507 29.5274 37.2282 30.424 33.3272 36.8904C29.2281 42.7618 31.8546 51.7974 38.451 54.5564C42.9721 56.8498 48.5611 55.5565 52.1951 52.2027C57.0521 57.0223 61.8918 61.8677 66.7143 66.7217C60.3503 72.9467 51.4976 76.5937 42.5674 76.2316C32.0526 76.0505 21.8996 70.2998 16.1815 61.4883C10.6098 53.2632 9.49032 42.529 12.401 33.114C7.02741 31.5276 2.47188 27.2943 0.818458 21.8885C-1.25693 15.8791 0.740957 8.8351 5.3826 4.56732ZM12.5044 33.2692C18.8167 34.597 25.8782 32.614 29.917 27.4323C33.3616 23.3283 34.3433 17.6552 33.2324 12.4907C23.5616 15.6377 15.6476 23.587 12.5044 33.2692Z" fill="white"/>
<path id="Vector_2" d="M95.8945 32.3241C100.011 30.1859 105.419 30.9273 108.64 34.3329C107.787 35.3331 106.926 36.3332 106.065 37.3333C104.024 35.6435 101.122 34.3502 98.5555 35.7211C94.1291 37.6696 94.0344 44.9033 98.3488 47.0328C101.001 48.4554 104.075 47.188 106.194 45.3861C107.133 46.369 108.063 47.3605 108.993 48.352C104.627 53.1198 95.7223 52.8267 92.2346 47.188C88.9794 42.3771 90.607 34.9451 95.8945 32.3241Z" fill="white"/>
<path id="Vector_3" d="M114.651 51.3783C114.651 44.7567 114.634 38.1352 114.66 31.5137C120.171 31.5223 125.683 31.505 131.194 31.5223C131.211 38.1352 131.203 44.7567 131.194 51.3696C129.721 51.3696 128.257 51.3696 126.785 51.3696C126.776 46.0672 126.785 40.7735 126.785 35.4711C124.21 35.4538 121.627 35.4538 119.052 35.4711C119.043 40.7648 119.052 46.0672 119.043 51.361C117.579 51.3696 116.115 51.3696 114.651 51.3783Z" fill="white"/>
<path id="Vector_4" d="M136.68 31.5402C138.29 31.5229 139.892 31.5057 141.502 31.4971C143.397 34.9458 145.076 38.5152 147.005 41.9467C148.417 38.4117 150.097 34.9975 151.647 31.5316C153.24 31.5229 154.824 31.5229 156.417 31.5316C154.041 36.377 151.604 41.1966 149.227 46.042C148.254 48.0509 147.048 50.146 144.955 51.1634C142.682 52.0342 140.15 51.5514 137.98 50.6202C138.497 49.5942 139.013 48.5596 139.522 47.525C141.33 47.9819 143.276 48.0509 144.645 46.5938C142.071 41.5328 139.263 36.6012 136.68 31.5402Z" fill="white"/>
<path id="Vector_5" d="M160.422 31.5221C165.907 31.5135 171.393 31.5135 176.878 31.5221C176.887 32.8585 176.887 34.1862 176.887 35.5226C174.889 35.5312 172.891 35.5398 170.902 35.5398C170.893 40.8164 170.902 46.0929 170.893 51.3694C169.429 51.3694 167.957 51.3694 166.493 51.3694C166.484 46.0929 166.493 40.8164 166.484 35.5398C164.46 35.5398 162.428 35.5312 160.404 35.5312C160.404 34.1862 160.413 32.8498 160.422 31.5221Z" fill="white"/>
<path id="Vector_6" d="M182.587 31.5137C184.034 31.5137 185.481 31.5223 186.928 31.5395C186.936 34.1174 186.936 36.6954 186.945 39.2819C189.615 39.2819 192.276 39.2819 194.945 39.2819C194.945 36.6954 194.945 34.1088 194.954 31.5309C196.418 31.5223 197.873 31.5137 199.337 31.5137C199.346 38.1352 199.346 44.7567 199.337 51.3696C197.873 51.3696 196.418 51.3696 194.954 51.3696C194.945 48.6969 194.945 46.0328 194.945 43.36C192.276 43.36 189.615 43.36 186.945 43.3686C186.936 46.0241 186.936 48.6883 186.928 51.3438C185.481 51.361 184.026 51.3696 182.579 51.3783C182.579 44.7567 182.562 38.1352 182.587 31.5137Z" fill="white"/>
<path id="Vector_7" d="M206.726 31.5135C208.164 31.5135 209.602 31.5221 211.04 31.5307C211.083 35.8244 210.997 40.1094 211.126 44.4031C213.847 40.0491 216.836 35.8675 219.617 31.548C220.986 31.5307 222.347 31.5135 223.716 31.5049C223.725 38.135 223.725 44.7566 223.716 51.3867C222.278 51.3695 220.84 51.3522 219.402 51.335C219.376 47.0586 219.428 42.7735 219.342 38.4971C216.56 42.8167 213.658 47.0499 210.833 51.3522C209.464 51.3608 208.086 51.3695 206.717 51.3781C206.717 44.7566 206.708 38.135 206.726 31.5135Z" fill="white"/>
<path id="Vector_8" d="M231.131 31.5221C232.595 31.5135 234.05 31.5135 235.514 31.5221C235.523 34.3673 235.523 37.2125 235.531 40.0663C238.201 37.2297 240.87 34.3931 243.497 31.5221C245.262 31.5135 247.028 31.5221 248.802 31.548C246.175 34.2983 243.592 37.0918 240.87 39.7386C243.282 43.8167 246.597 47.2655 249 51.3436C247.312 51.3694 245.624 51.3694 243.936 51.3608C241.869 48.5501 239.863 45.7049 237.744 42.9373C236.995 43.7219 236.255 44.5151 235.505 45.2997C235.523 47.3258 235.523 49.3433 235.523 51.3694C234.059 51.3694 232.595 51.3694 231.139 51.3694C231.122 44.7565 231.122 38.1436 231.131 31.5221Z" fill="white"/>
</g>
</svg>
