<svg width="189" height="50" viewBox="0 0 189 50" fill="none" xmlns="http://www.w3.org/2000/svg">
<g id="Logo">
<path id="Vector" d="M3.55402 2.99472C6.24351 0.422528 10.2977 -0.600695 13.8969 0.349037C17.7066 1.2705 20.8282 4.35713 21.8631 8.11083C29.5165 5.66301 38.364 7.62466 44.0557 13.3174C40.8772 16.5058 37.676 19.6772 34.469 22.843C31.0005 19.3606 24.581 19.9486 22.0052 24.1884C19.2987 28.0382 21.0329 33.9628 25.3884 35.7718C28.3736 37.2755 32.0638 36.4275 34.4633 34.2285C37.6703 37.3886 40.8658 40.5657 44.05 43.7484C39.848 47.83 34.0028 50.2213 28.1063 49.9838C21.1637 49.8651 14.4598 46.0945 10.6843 40.3169C7.00544 34.9238 6.26626 27.8856 8.18814 21.7124C4.64005 20.6722 1.63213 17.8965 0.540411 14.3519C-0.829926 10.4117 0.489238 5.79304 3.55402 2.99472ZM8.25637 21.8141C12.4242 22.6847 17.0868 21.3845 19.7536 17.9869C22.028 15.296 22.6762 11.5762 21.9427 8.18997C15.5573 10.2534 10.3318 15.4656 8.25637 21.8141Z" fill="white"/>
<path id="Vector_2" d="M65.6297 12.9021C68.9465 11.1741 73.3043 11.7733 75.8995 14.5256C75.2125 15.3339 74.5186 16.1421 73.8247 16.9504C72.1802 15.5847 69.8417 14.5395 67.7738 15.6474C64.2071 17.2222 64.1308 23.0682 67.6073 24.7892C69.7445 25.9389 72.2218 24.9147 73.9288 23.4584C74.6852 24.2527 75.4346 25.054 76.184 25.8553C72.6659 29.7086 65.4909 29.4716 62.6806 24.9147C60.0576 21.0266 61.3691 15.0203 65.6297 12.9021Z" fill="white"/>
<path id="Vector_3" d="M80.7438 28.301C80.7438 22.9497 80.7299 17.5984 80.7507 12.2471C85.1917 12.254 89.6327 12.2401 94.0738 12.254C94.0876 17.5984 94.0807 22.9497 94.0738 28.294C92.8872 28.294 91.7075 28.294 90.5209 28.294C90.514 24.0088 90.5209 19.7305 90.5209 15.4453C88.4462 15.4314 86.3644 15.4314 84.2897 15.4453C84.2827 19.7236 84.2897 24.0088 84.2827 28.2871C83.1031 28.294 81.9234 28.294 80.7438 28.301Z" fill="white"/>
<path id="Vector_4" d="M98.4941 12.2673C99.7917 12.2533 101.082 12.2394 102.38 12.2324C103.907 15.0196 105.26 17.9043 106.814 20.6775C107.952 17.8206 109.305 15.0614 110.554 12.2603C111.838 12.2533 113.115 12.2533 114.399 12.2603C112.483 16.1762 110.52 20.0713 108.604 23.9872C107.82 25.6107 106.849 27.3039 105.163 28.1261C103.331 28.8299 101.291 28.4397 99.5419 27.6871C99.9583 26.858 100.375 26.0218 100.784 25.1857C102.241 25.555 103.809 25.6107 104.913 24.4331C102.838 20.343 100.576 16.3574 98.4941 12.2673Z" fill="white"/>
<path id="Vector_5" d="M117.625 12.2533C122.045 12.2463 126.466 12.2463 130.886 12.2533C130.893 13.3333 130.893 14.4063 130.893 15.4864C129.283 15.4933 127.673 15.5003 126.07 15.5003C126.063 19.7646 126.07 24.0289 126.063 28.2933C124.883 28.2933 123.697 28.2933 122.517 28.2933C122.51 24.0289 122.517 19.7646 122.51 15.5003C120.88 15.5003 119.242 15.4933 117.611 15.4933C117.611 14.4063 117.618 13.3263 117.625 12.2533Z" fill="white"/>
<path id="Vector_6" d="M135.486 12.2471C136.652 12.2471 137.818 12.254 138.983 12.268C138.99 14.3514 138.99 16.4347 138.997 18.5251C141.148 18.5251 143.293 18.5251 145.444 18.5251C145.444 16.4347 145.444 14.3444 145.451 12.261C146.63 12.254 147.803 12.2471 148.983 12.2471C148.99 17.5984 148.99 22.9497 148.983 28.294C147.803 28.294 146.63 28.294 145.451 28.294C145.444 26.134 145.444 23.9809 145.444 21.8209C143.293 21.8209 141.148 21.8209 138.997 21.8279C138.99 23.974 138.99 26.127 138.983 28.2731C137.818 28.2871 136.645 28.294 135.479 28.301C135.479 22.9497 135.465 17.5984 135.486 12.2471Z" fill="white"/>
<path id="Vector_7" d="M154.936 12.2462C156.095 12.2462 157.254 12.2532 158.413 12.2602C158.448 15.7302 158.378 19.1932 158.482 22.6632C160.675 19.1444 163.083 15.765 165.324 12.2741C166.428 12.2602 167.524 12.2462 168.627 12.2393C168.634 17.5975 168.634 22.9488 168.627 28.3071C167.468 28.2932 166.31 28.2793 165.151 28.2653C165.13 24.8093 165.172 21.3462 165.102 17.8902C162.861 21.3811 160.522 24.8023 158.246 28.2793C157.143 28.2862 156.033 28.2932 154.929 28.3002C154.929 22.9488 154.923 17.5975 154.936 12.2462Z" fill="white"/>
<path id="Vector_8" d="M174.601 12.2533C175.781 12.2463 176.954 12.2463 178.133 12.2533C178.14 14.5527 178.14 16.8521 178.147 19.1584C180.298 16.866 182.449 14.5736 184.566 12.2533C185.988 12.2463 187.411 12.2533 188.84 12.2742C186.724 14.4969 184.642 16.7545 182.449 18.8936C184.392 22.1894 187.064 24.9766 189 28.2724C187.64 28.2933 186.28 28.2933 184.92 28.2863C183.254 26.0148 181.637 23.7154 179.93 21.4787C179.327 22.1128 178.73 22.7538 178.126 23.3879C178.14 25.0254 178.14 26.6558 178.14 28.2933C176.961 28.2933 175.781 28.2933 174.608 28.2933C174.594 22.9489 174.594 17.6046 174.601 12.2533Z" fill="white"/>
<g id="&#208;&#186;&#208;&#190;&#208;&#189;&#209;&#129;&#208;&#176;&#208;&#187;&#209;&#130;&#208;&#184;&#208;&#189;&#208;&#179;">
<path d="M61.9863 44.0004H63.1863V42.7304L64.0463 41.8204L65.6463 44.0004H67.0763L64.8563 40.9403L66.9063 38.7204H65.4863L63.1863 41.2504V38.7204H61.9863V44.0004Z" fill="white"/>
<path d="M71.7241 44.1203C73.3541 44.1203 74.5541 42.8703 74.5541 41.3703C74.5541 39.8403 73.3641 38.6104 71.7441 38.6104C70.1241 38.6104 68.9241 39.8603 68.9241 41.3703C68.9241 42.8903 70.1141 44.1203 71.7241 44.1203ZM71.7441 43.0704C70.8041 43.0704 70.1341 42.2903 70.1341 41.3703C70.1341 40.4303 70.7541 39.6703 71.7241 39.6703C72.6741 39.6703 73.3441 40.4403 73.3441 41.3703C73.3441 42.3003 72.7241 43.0704 71.7441 43.0704Z" fill="white"/>
<path d="M77.0863 44.0004H78.2963V41.8703H80.6263V44.0004H81.8363V38.7204H80.6263V40.8604H78.2963V38.7204H77.0863V44.0004Z" fill="white"/>
<path d="M87.0959 44.1203C88.1259 44.1203 88.7359 43.7104 89.2559 43.1304L88.5259 42.4104C88.1459 42.8004 87.7259 43.0704 87.1559 43.0704C86.2259 43.0704 85.5759 42.3103 85.5759 41.3703V41.3503C85.5759 40.4303 86.2159 39.6703 87.0959 39.6703C87.7059 39.6703 88.0959 39.9403 88.4659 40.3303L89.2159 39.5204C88.7259 38.9804 88.1059 38.6104 87.1059 38.6104C85.5259 38.6104 84.3659 39.8703 84.3659 41.3703V41.3904C84.3659 42.8904 85.5259 44.1203 87.0959 44.1203Z" fill="white"/>
<path d="M96.0499 44.0004V40.8703C96.0499 39.4603 95.2899 38.6404 93.7299 38.6404C92.8699 38.6404 92.2999 38.8203 91.7199 39.0803L92.0499 40.0504C92.5299 39.8504 92.9699 39.7204 93.5599 39.7204C94.3999 39.7204 94.8599 40.1203 94.8599 40.8503V40.9504C94.4499 40.8204 94.0399 40.7304 93.3999 40.7304C92.1699 40.7304 91.2599 41.2903 91.2599 42.4604C91.2599 43.5403 92.1399 44.1104 93.1399 44.1104C93.9399 44.1104 94.4899 43.7803 94.8499 43.3503V44.0004H96.0499ZM94.8799 42.0904C94.8799 42.7504 94.2799 43.2004 93.4799 43.2004C92.9099 43.2004 92.4599 42.9203 92.4599 42.4203C92.4599 41.8903 92.9099 41.5803 93.6699 41.5803C94.1399 41.5803 94.5699 41.6704 94.8799 41.7904V42.0904Z" fill="white"/>
<path d="M98.7491 44.0604C99.9191 44.0604 100.639 43.5903 100.639 39.7603H102.289V44.0004H103.499V38.7204H99.5091C99.5091 42.7404 99.0891 43.0404 98.4791 43.0404C98.3991 43.0404 98.2091 43.0204 98.1291 43.0004L98.0391 43.9904C98.2191 44.0204 98.5591 44.0604 98.7491 44.0604Z" fill="white"/>
<path d="M107.45 44.0004H108.67V39.7603H110.37V38.7204H105.75V39.7603H107.45V44.0004Z" fill="white"/>
<path d="M112.629 44.0004H113.769L116.279 40.4804V44.0004H117.449V38.7204H116.309C115.469 39.9004 114.639 41.0803 113.809 42.2603V38.7204H112.629V44.0004Z" fill="white"/>
<path d="M120.267 44.0004H121.477V41.8703H123.807V44.0004H125.017V38.7204H123.807V40.8604H121.477V38.7204H120.267V44.0004Z" fill="white"/>
<path d="M127.837 44.0004H129.047V39.7603H131.577V38.7204H127.837V44.0004Z" fill="white"/>
</g>
</g>
</svg>
