<svg width="18" height="19" viewBox="0 0 18 19" fill="none" xmlns="http://www.w3.org/2000/svg">
<path id="Vector" d="M17.9994 14.2252V17.0854C18.0005 17.3509 17.9488 17.6138 17.8479 17.8571C17.7469 18.1004 17.5988 18.3188 17.413 18.4983C17.2273 18.6778 17.008 18.8144 16.7693 18.8995C16.5305 18.9846 16.2775 19.0162 16.0265 18.9923C13.2415 18.6735 10.5664 17.671 8.21601 16.0653C6.02929 14.6014 4.17534 12.6484 2.7858 10.3447C1.25627 7.85744 0.304417 5.02558 0.0073459 2.07855C-0.0152705 1.8149 0.014473 1.54917 0.0946821 1.2983C0.174891 1.04742 0.303809 0.816879 0.473227 0.621362C0.642645 0.425846 0.848852 0.269634 1.07872 0.162672C1.30858 0.0557099 1.55707 0.000341737 1.80837 9.24365e-05H4.52347C4.96269 -0.00446153 5.3885 0.159389 5.72152 0.461103C6.05455 0.762817 6.27207 1.18181 6.33354 1.63998C6.44814 2.55533 6.66067 3.45408 6.96707 4.31909C7.08883 4.66035 7.11519 5.03122 7.043 5.38777C6.97082 5.74431 6.80313 6.07159 6.5598 6.33082L5.41041 7.54166C6.69877 9.9286 8.57482 11.9049 10.8406 13.2622L11.99 12.0513C12.2361 11.795 12.5467 11.6184 12.8852 11.5423C13.2236 11.4663 13.5757 11.494 13.8996 11.6223C14.7207 11.9451 15.5739 12.169 16.4428 12.2897C16.8824 12.355 17.2839 12.5883 17.5709 12.9452C17.858 13.302 18.0105 13.7576 17.9994 14.2252Z" fill="#F8F9FA"/>
</svg>
